<?xml version="1.0" encoding="utf-8"?>
<!-- Generator: Adobe Illustrator 14.0.0, SVG Export Plug-In . SVG Version: 6.00 Build 43363)  -->
<!DOCTYPE svg PUBLIC "-//W3C//DTD SVG 1.1//EN" "http://www.w3.org/Graphics/SVG/1.1/DTD/svg11.dtd">
<svg version="1.1" id="Layer_1" xmlns="http://www.w3.org/2000/svg" xmlns:xlink="http://www.w3.org/1999/xlink" x="0px" y="0px"
	 width="542.016px" height="309.243px" viewBox="0 0 542.016 309.243" enable-background="new 0 0 542.016 309.243"
	 xml:space="preserve">
<path fill="#FFFFFF" d="M238.521,187.107c-6.339-0.238-14.426-0.766-19.32-1.254c-2.226-0.221-4.212-0.403-4.417-0.403
	s-0.37-0.078-0.37-0.176c0-0.094,2.969-0.236,6.598-0.313c45.89-0.97,103.201-12.464,141.203-28.313
	c19.289-8.047,33.389-16.661,42.963-26.259c12.38-12.404,16.044-25.604,11.183-40.271c-2.34-7.059-6.644-13.649-13.133-20.113
	c-3.398-3.382-5.98-5.574-10.213-8.663c-22.632-16.519-60.813-29.316-105.246-35.273c-10.745-1.441-19.955-2.293-34.184-3.162
	c-5.938-0.362-31.624-0.363-37.925-0.001c-33.14,1.905-62.273,6.805-88.004,14.804C89.815,49.472,64.949,65.774,55.345,85.12
	c-4.53,9.122-5.545,18.593-2.937,27.311c4.06,13.565,17.792,27.21,38.988,38.739c12.569,6.837,29.286,13.529,43.776,17.53
	c3.877,1.069,10.149,2.617,10.607,2.617c0.461,0,1.701-6.803,2.329-12.778c0.732-6.998,0.92-12.045,0.785-21.396
	c-0.329-22.89-3.336-44.996-8.81-64.791c-0.531-1.915-0.914-3.53-0.853-3.591c0.211-0.211,44.842-22.749,45.048-22.749
	c0.118,0,0.212,0.049,0.212,0.106c0,0.784-1.148,20.649-1.453,25.142c-3.118,45.903-3.949,61.987-3.949,76.265
	c0,16.603,1.285,25.374,4.198,28.696c1.099,1.249,1.152,3.268,0.125,4.708c-0.976,1.371-1.902,1.444-8.477,0.661
	c-30.467-3.619-66.079-11.447-93.075-20.458c-55.486-18.52-81.925-42.092-77.61-69.195C6.07,80.51,13.604,69.653,26.666,59.628
	c32.47-24.917,99.901-43.401,180.787-49.559c27.465-2.09,54.728-2.576,81.875-1.458c81.421,3.352,156.014,20.259,195.957,44.42
	c18.73,11.329,29.247,23.306,32.442,36.949c0.54,2.314,0.579,2.784,0.589,7.154c0.009,4.107-0.051,4.953-0.471,6.96
	c-1.314,6.288-4.337,12.461-8.892,18.185c-2.087,2.623-7.701,8.132-10.83,10.626c-10.926,8.711-25.343,16.356-44.263,23.472
	c-32.569,12.245-77.112,21.725-126.818,26.995c-14.879,1.576-29.022,2.63-46.237,3.447
	C273.007,187.188,245.587,187.375,238.521,187.107z"/>
<path fill="#FFFFFF" d="M3.796,294.958v-93.721c0-0.914,0.318-1.693,0.959-2.336c0.639-0.637,1.414-0.958,2.329-0.958h37.411
	c14.339,0,26.079,4.208,35.214,12.607c4.934,4.571,8.678,10.006,11.235,16.305c2.557,6.305,3.839,13.384,3.839,21.241
	s-1.282,14.963-3.839,21.306c-2.557,6.355-6.301,11.812-11.235,16.376c-4.57,4.112-9.797,7.221-15.69,9.322
	c-5.892,2.101-12.401,3.146-19.524,3.146H7.083c-0.915,0-1.689-0.318-2.329-0.957C4.114,296.649,3.796,295.871,3.796,294.958z
	 M34.216,273.037h10.278c2.553,0,5.206-0.321,7.945-0.963c2.742-0.639,5.207-1.851,7.401-3.629c2.191-1.777,3.996-4.29,5.412-7.535
	c1.417-3.241,2.125-7.471,2.125-12.678c0-5.206-0.708-9.429-2.125-12.67c-1.416-3.244-3.244-5.756-5.482-7.539
	c-2.238-1.779-4.705-2.986-7.399-3.631c-2.694-0.634-5.323-0.956-7.876-0.956H34.216c-0.915,0-1.691,0.322-2.33,0.956
	c-0.641,0.645-0.96,1.418-0.96,2.33v43.025c0,0.916,0.319,1.69,0.96,2.328C32.525,272.714,33.301,273.037,34.216,273.037z"/>
<path fill="#FFFFFF" d="M190.012,201.921l-34.256,55.495c-0.459,0.82-0.869,1.828-1.233,3.016c-0.367,1.185-0.548,2.235-0.548,3.148
	v31.378c0,0.912-0.318,1.69-0.955,2.331c-0.633,0.639-1.408,0.957-2.315,0.957h-20.587c-0.91,0-1.685-0.318-2.32-0.957
	c-0.635-0.641-0.953-1.419-0.953-2.331v-31.24c0-0.909-0.159-1.985-0.478-3.223c-0.32-1.229-0.709-2.214-1.164-2.941
	c-5.481-9.407-11.079-18.635-16.787-27.681c-5.709-9.043-11.396-18.359-17.059-27.952c-0.458-0.824-0.549-1.669-0.274-2.535
	c0.274-0.867,0.868-1.304,1.781-1.304h24.39c0.912,0,1.85,0.275,2.811,0.82c0.958,0.55,1.663,1.236,2.122,2.058l16.793,29.323
	c0.456,0.736,1,1.097,1.635,1.097c0.637,0,1.182-0.36,1.64-1.097l16.655-29.323c0.457-0.82,1.165-1.506,2.123-2.058
	c0.961-0.545,1.898-0.82,2.811-0.82h24.666c0.912,0,1.576,0.318,1.986,0.961C190.901,199.679,190.742,200.644,190.012,201.921z"/>
<path fill="#FFFFFF" d="M293.055,201.238v93.721c0,0.912-0.317,1.69-0.955,2.331c-0.638,0.639-1.414,0.957-2.327,0.957h-20.239
	c-0.911,0-1.87-0.271-2.87-0.818c-1.002-0.549-1.778-1.185-2.325-1.921l-35.689-50.29c-0.546-0.729-1.12-1.025-1.71-0.892
	c-0.592,0.142-0.887,0.664-0.887,1.58v49.053c0,0.913-0.325,1.692-0.967,2.333c-0.644,0.639-1.424,0.957-2.341,0.957h-20.519
	c-0.919,0-1.7-0.318-2.343-0.957c-0.643-0.641-0.963-1.42-0.963-2.333v-93.721c0-0.914,0.318-1.692,0.959-2.335
	c0.639-0.637,1.415-0.958,2.331-0.958h20.553c0.911,0,1.871,0.258,2.876,0.759c1.006,0.499,1.781,1.118,2.33,1.85l35.627,50.285
	c0.548,0.73,1.116,1.053,1.713,0.959c0.592-0.087,0.89-0.596,0.89-1.506v-49.054c0-0.914,0.319-1.692,0.96-2.335
	c0.638-0.637,1.416-0.958,2.33-0.958h20.281c0.912,0,1.688,0.321,2.326,0.958C292.733,199.544,293.055,200.324,293.055,201.238z"/>
<path fill="#FFFFFF" d="M306.073,248.097c0-7.129,1.371-13.841,4.114-20.142c2.738-6.307,6.436-11.809,11.099-16.513
	c4.656-4.706,10.138-8.427,16.441-11.168c6.305-2.737,13.019-4.106,20.142-4.106c7.125,0,13.841,1.369,20.142,4.106
	c6.305,2.741,11.811,6.462,16.516,11.168c4.702,4.704,8.425,10.206,11.167,16.513c2.737,6.301,4.108,13.013,4.108,20.142
	c0,7.127-1.371,13.842-4.108,20.142c-2.74,6.307-6.465,11.811-11.167,16.512c-4.705,4.706-10.211,8.429-16.516,11.171
	c-6.301,2.737-13.017,4.106-20.142,4.106c-7.123,0-13.837-1.369-20.142-4.106c-6.303-2.742-11.784-6.465-16.441-11.171
	c-4.663-4.699-8.36-10.205-11.099-16.512C307.444,261.938,306.073,255.223,306.073,248.097z M333.205,248.097
	c0,3.472,0.639,6.763,1.92,9.864c1.276,3.104,3.033,5.848,5.274,8.221c2.236,2.378,4.862,4.277,7.878,5.691
	c3.017,1.415,6.211,2.121,9.592,2.121c3.379,0,6.575-0.706,9.593-2.121c3.015-1.414,5.661-3.312,7.949-5.691
	c2.281-2.374,4.062-5.116,5.343-8.221c1.275-3.102,1.915-6.393,1.915-9.864c0-3.378-0.64-6.642-1.915-9.8
	c-1.28-3.146-3.062-5.891-5.343-8.221c-2.288-2.327-4.936-4.197-7.949-5.613c-3.018-1.421-6.214-2.129-9.593-2.129
	c-3.381,0-6.575,0.707-9.592,2.129c-3.016,1.416-5.642,3.286-7.878,5.613c-2.241,2.332-3.998,5.074-5.274,8.221
	C333.843,241.456,333.205,244.719,333.205,248.097z"/>
<path fill="#FFFFFF" d="M518.184,201.238v93.721c0,0.912-0.316,1.69-0.955,2.331c-0.637,0.639-1.412,0.957-2.327,0.957h-20.237
	c-0.912,0-1.867-0.271-2.87-0.818c-1.004-0.549-1.779-1.185-2.326-1.921l-35.688-50.29c-0.549-0.729-1.12-1.025-1.711-0.892
	c-0.594,0.142-0.888,0.664-0.888,1.58v49.053c0,0.913-0.324,1.692-0.967,2.333c-0.645,0.639-1.424,0.957-2.342,0.957h-20.519
	c-0.92,0-1.699-0.318-2.34-0.957c-0.643-0.641-0.965-1.42-0.965-2.333v-93.721c0-0.914,0.316-1.692,0.958-2.335
	c0.639-0.637,1.416-0.958,2.332-0.958h20.552c0.913,0,1.874,0.258,2.878,0.759c1.006,0.499,1.782,1.118,2.331,1.85l35.626,50.285
	c0.549,0.73,1.116,1.053,1.712,0.959c0.596-0.087,0.895-0.596,0.895-1.506v-49.054c0-0.914,0.316-1.692,0.955-2.335
	c0.637-0.637,1.418-0.958,2.33-0.958h20.281c0.912,0,1.691,0.321,2.328,0.958C517.864,199.544,518.184,200.324,518.184,201.238z"/>
<g>
	<path fill="#FFFFFF" d="M528.226,288.128v1.616h-3.124v8.157h-1.942v-8.157h-3.091v-1.616H528.226z M538.793,297.902l-0.36-5.749
		c-0.035-0.754-0.035-1.688-0.073-2.732h-0.107c-0.252,0.863-0.573,2.015-0.825,2.912l-1.762,5.426h-2.013l-1.76-5.569
		c-0.181-0.72-0.468-1.905-0.684-2.769h-0.108c0,0.9-0.035,1.833-0.071,2.732l-0.359,5.749h-1.868l0.717-9.773h2.912l1.689,4.779
		c0.252,0.755,0.396,1.474,0.646,2.479h0.035c0.251-0.862,0.468-1.725,0.684-2.409l1.69-4.85h2.801l0.757,9.773H538.793z"/>
</g>
</svg>
